Coordinates
version=1
nRows=7
nColumns=63
inDegrees=yes

Units are S.I. units (second, meters, Newtons, ...)
If the header above contains a line with 'inDegrees', this indicates whether rotational values are in degrees (yes) or radians (no).

endheader
time	pelvis_tilt	pelvis_list	pelvis_rotation	pelvis_tx	pelvis_ty	pelvis_tz	hip_flexion_r	hip_adduction_r	hip_rotation_r	knee_angle_r	knee_angle_r_beta	ankle_angle_r	subtalar_angle_r	mtp_angle_r	hip_flexion_l	hip_adduction_l	hip_rotation_l	knee_angle_l	knee_angle_l_beta	ankle_angle_l	subtalar_angle_l	mtp_angle_l	L5_S1_Flex_Ext	L5_S1_Lat_Bending	L5_S1_axial_rotation	L4_L5_Flex_Ext	L4_L5_Lat_Bending	L4_L5_axial_rotation	L3_L4_Flex_Ext	L3_L4_Lat_Bending	L3_L4_axial_rotation	L2_L3_Flex_Ext	L2_L3_Lat_Bending	L2_L3_axial_rotation	L1_L2_Flex_Ext	L1_L2_Lat_Bending	L1_L2_axial_rotation	L1_T12_Flex_Ext	L1_T12_Lat_Bending	L1_T12_axial_rotation	Abs_r3	Abs_r2	Abs_r1	Abs_t1	Abs_t2	neck_flexion	neck_bending	neck_rotation	arm_flex_r	arm_add_r	arm_rot_r	elbow_flex_r	pro_sup_r	wrist_flex_r	wrist_dev_r	arm_flex_l	arm_add_l	arm_rot_l	elbow_flex_l	pro_sup_l	wrist_flex_l	wrist_dev_l
     60.24000000	     88.82182782	    -23.70008467	    193.19467554	      3.71695456	      0.83391327	     -2.48698507	     93.08667457	     -6.33252697	     24.74114299	     91.98751793	      1.60548506	     35.12976589	      2.08879388	     16.29159859	     76.33601751	    -13.79567480	    -32.98198175	     94.48005492	      1.64898804	     35.23948819	      2.23852956	     14.38510464	     46.73129565	     -2.45819927	    -14.82122548	     86.78468916	     -3.26940503	    -15.74755207	     76.77484563	     -5.97686571	    -15.74755207	     53.40919780	     -5.97686571	    -12.96857229	     43.39468114	     -5.01275996	    -12.04224570	     26.70226234	     -3.80775067	    -11.11591911	    333.79697173	    -27.80764181	    -82.43120973	      0.00000000	      0.00000000	     13.88737903	      3.11756491	      6.88289506	   -187.77836812	   -143.81278231	    156.82420902	    108.82078851	     80.08156576	    -10.26849929	      4.31512240	      0.27774243	    -44.18590739	     -3.75944532	     92.65917039	     71.20415427	    -10.07459541	      4.42512282
     60.32000000	     92.14419797	    -18.00815156	    194.32179567	      3.59044078	      0.80255158	     -2.47002856	     96.96662456	     -6.98276394	     20.89870829	     95.98225211	      1.67520632	     37.07061191	      5.76679991	     15.31698859	     81.95683025	    -15.95698719	    -30.14838428	     96.53324011	      1.68482288	     35.13313969	      1.53137391	     14.83503179	     46.85234295	     -2.87911605	    -14.84080323	     87.00948608	     -3.82922435	    -15.76835344	     76.97371422	     -7.00028276	    -15.76835344	     53.54754275	     -7.00028276	    -12.98570283	     43.50708566	     -5.87109345	    -12.05815263	     26.77142876	     -4.45975076	    -11.13060243	    334.66160042	    -32.56913657	    -82.54009535	      0.00000000	      0.00000000	     18.73155026	      2.03478125	     11.47538708	   -187.57058364	   -142.97608881	    154.56802725	    112.85440181	     79.50365354	     -8.39197748	      2.59379627	      2.39556770	    -42.48100838	     -5.02792266	     98.09117306	     71.41918127	    -10.53547134	      3.17645081
     60.40000000	     88.88178173	    -13.64991731	    198.56792282	      3.55734377	      0.84640358	     -2.44881662	     93.00881710	     -7.97476787	     18.31770363	     92.81621445	      1.61994854	     29.95605395	      2.12607623	     17.84413183	     80.83732607	    -13.82758045	    -26.23149016	     95.37092474	      1.66453665	     31.17615921	      1.19053685	     17.05402507	     46.83481853	     -2.38073554	    -14.81663546	     86.97694150	     -3.16637827	    -15.74267517	     76.94492337	     -5.78852039	    -15.74267517	     53.52751410	     -5.78852039	    -12.96455603	     43.49081249	     -4.85479591	    -12.03851631	     26.76141531	     -3.68775935	    -11.11247659	    334.53642530	    -26.93135657	    -82.40568143	      0.00000000	      0.00000000	     19.53573909	      1.89790375	     11.86692200	   -186.66956842	   -140.02418923	    159.72153294	    103.72368227	     80.40325367	     -7.22697785	      0.31140251	      3.96067460	    -42.21771514	     -1.13869995	     91.15526018	     74.34093239	     -6.75397687	      0.47177107
     60.48000000	     88.33348403	     -9.85724904	    200.81388647	      3.60811114	      0.85170154	     -2.43487938	     92.43094861	     -9.22483031	     15.56488361	     93.30399514	      1.62846192	     28.11917511	      1.38240685	     19.49527303	     80.82228533	    -13.78807701	    -25.74500083	     94.99540130	      1.65798253	     29.28185431	      1.13263223	     19.20230260	     46.80996179	     -2.47676243	    -14.82728804	     86.93078004	     -3.29409404	    -15.75399355	     76.90408622	     -6.02200018	    -15.75399355	     53.49910533	     -6.02200018	    -12.97387704	     43.46773052	     -5.05061396	    -12.04717154	     26.74721217	     -3.83650501	    -11.12046603	    334.35887606	    -28.01763201	    -82.46492792	      0.00000000	      0.00000000	     17.32385926	      1.71670043	     14.54714886	   -194.28470468	   -136.78059949	    159.18620004	    102.33889068	     83.06536986	     -6.54289040	     -0.26358161	      4.97988554	    -40.15924361	     -1.50906392	     94.79555945	     83.54993376	     -5.53735831	      0.66564963
     60.56000000	     88.93014003	     -5.28215576	    205.06488420	      3.69138988	      0.83250476	     -2.43503616	     93.26165684	    -10.56841571	     10.92634363	     94.14360490	      1.64311588	     30.38083079	      3.48278167	     18.64199304	     83.89070216	    -14.57140480	    -21.29472663	     95.30935563	      1.66346206	     30.02909874	      3.17859245	     18.51483321	     47.18092794	     -1.95770699	    -14.83395714	     87.61970129	     -2.60375029	    -15.76107946	     77.51354652	     -4.75996877	    -15.76107946	     53.92308255	     -4.75996877	    -12.97971250	     43.81220969	     -3.99215609	    -12.05259018	     26.95918223	     -3.03248812	    -11.12546786	    337.00865022	    -22.14597298	    -82.50201944	      0.00000000	      0.00000000	     16.92517750	     -0.07840342	     17.52021688	   -202.44280259	   -135.91586922	    148.46076829	    103.53946935	     80.65441806	     -6.95523779	     -0.54018844	      7.86136379	    -37.80658124	     -0.81892363	     94.75680392	     85.85889163	     -6.50730789	      3.29898982
     60.64000000	     86.68911188	     -1.19202730	    208.78822304	      3.82805623	      0.83288814	     -2.41882611	     92.03313040	    -10.27643513	      8.63785794	     93.44378164	      1.63090166	     29.89112507	      0.98229592	     18.54955031	     84.28007168	    -14.04310210	    -18.05934774	     93.91557653	      1.63913603	     28.52436309	      2.97038715	     18.19489297	     47.11353176	     -2.04713335	    -14.85389565	     87.49453982	     -2.72268736	    -15.78226413	     77.40282132	     -4.97740003	    -15.78226413	     53.84605544	     -4.97740003	    -12.99715870	     43.74962559	     -4.17451433	    -12.06879022	     26.92067205	     -3.17100956	    -11.14042174	    336.52724598	    -23.15758191	    -82.61291146	      0.00000000	      0.00000000	     13.80201196	     -0.84491512	     21.39926018	   -207.37787709	   -137.68502185	    152.11291425	     99.90353617	     80.02512675	     -7.02357631	      0.01917652	     10.40140253	    -35.88461042	      3.38373443	     92.95794501	     87.64977739	     -7.57420293	      6.76088037
     60.72000000	     88.62467300	      5.34220815	    210.73122586	      3.96646878	      0.87406421	     -2.38469462	     90.12939744	    -14.54962569	      7.35333659	     89.20390694	      1.55690188	     29.11326677	     -0.43162855	     18.77644359	     85.05281987	    -14.49355160	    -15.66039899	     89.74746393	      1.56638874	     26.54370080	      4.63799000	     17.87145003	     47.19159931	     -3.12557068	    -14.89003847	     87.63951909	     -4.15700900	    -15.82066587	     77.53107851	     -7.59951254	    -15.82066587	     53.93527886	     -7.59951254	    -13.02878366	     43.82211912	     -6.37366372	    -12.09815626	     26.96527985	     -4.84150898	    -11.16752885	    337.08487474	    -35.35708060	    -82.81392696	      0.00000000	      0.00000000	     12.02786854	     -1.42630611	     22.07660939	   -215.28154225	   -139.83129160	    167.24203067	     98.77118447	     80.22799421	     -2.33539736	     -1.21485009	      6.81163131	    -34.31167525	      5.50662832	     94.03791163	     87.94575865	     -8.29219038	     10.08551347
